<?xml version="1.0" encoding="utf-8"?>
<!-- Generator: Adobe Illustrator 25.0.1, SVG Export Plug-In . SVG Version: 6.00 Build 0)  -->
<svg version="1.1" id="Capa_1" xmlns="http://www.w3.org/2000/svg" xmlns:xlink="http://www.w3.org/1999/xlink" x="0px" y="0px"
	 viewBox="0 0 29 29" style="enable-background:new 0 0 29 29;" xml:space="preserve">
<g>
	<path d="M12.9,16c0,0.2-0.1,0.3-0.3,0.3s-0.3-0.1-0.3-0.3s0.1-0.3,0.3-0.3C12.7,15.7,12.9,15.8,12.9,16z"/>
	<path d="M12.9,17c0,0.2-0.1,0.3-0.3,0.3s-0.3-0.1-0.3-0.3c0-0.2,0.1-0.3,0.3-0.3C12.7,16.8,12.9,16.9,12.9,17z"/>
	<path d="M16.7,16c0,0.2-0.1,0.3-0.3,0.3c-0.2,0-0.3-0.1-0.3-0.3s0.1-0.3,0.3-0.3C16.5,15.7,16.7,15.8,16.7,16z"/>
	<path d="M16.7,17c0,0.2-0.1,0.3-0.3,0.3c-0.2,0-0.3-0.1-0.3-0.3c0-0.2,0.1-0.3,0.3-0.3C16.5,16.8,16.7,16.9,16.7,17z"/>
	<path d="M13.7,6.5c-0.2,0-0.3,0.1-0.3,0.3v3.5c0,0.3-0.2,0.7-0.6,0.8V6.8c0-0.2-0.1-0.3-0.3-0.3c-0.2,0-0.3,0.1-0.3,0.3v4.3
		c-0.3-0.1-0.6-0.4-0.6-0.8V6.8c0-0.2-0.1-0.3-0.3-0.3c-0.2,0-0.3,0.1-0.3,0.3v3.5c0,0.7,0.4,1.2,1.1,1.3v2.8
		c-0.4,0.1-0.8,0.6-0.8,1.1v5.9c0,0.6,0.5,1.1,1.1,1.1s1.1-0.5,1.1-1.1v-5.9c0-0.5-0.3-0.9-0.8-1.1v-2.8c0.6-0.1,1.1-0.7,1.1-1.3
		V6.8C13.9,6.6,13.8,6.5,13.7,6.5z M13.2,15.4v5.9c0,0.3-0.2,0.6-0.6,0.6c-0.3,0-0.6-0.2-0.6-0.6v-5.9c0-0.3,0.2-0.6,0.6-0.6
		C12.9,14.9,13.2,15.2,13.2,15.4z"/>
	<path d="M17.2,7c-0.3-0.3-0.7-0.4-1.3-0.4c-0.2,0-0.3,0.1-0.3,0.3v7.8c0,0.1,0,0.1,0,0.1c-0.2,0.2-0.3,0.4-0.3,0.7v5.9
		c0,0.6,0.5,1.1,1.1,1.1c0.6,0,1.1-0.5,1.1-1.1v-5.9c0-0.3-0.2-0.7-0.4-0.8c0.7-0.9,0.7-2.2,0.7-4.2V9.8C17.8,8.6,17.8,7.6,17.2,7z
		 M16.9,21.4c0,0.3-0.2,0.6-0.6,0.6c-0.3,0-0.6-0.2-0.6-0.6v-5.9c0-0.3,0.2-0.6,0.6-0.6c0.3,0,0.6,0.2,0.6,0.6V21.4z M17.2,9.8v0.6
		c0,1.9,0,3.2-0.7,3.9c-0.1,0-0.1,0-0.1,0c-0.1,0-0.2,0-0.3,0.1V7.1c0.3,0.1,0.5,0.1,0.7,0.3C17.2,7.8,17.2,8.7,17.2,9.8z"/>
</g>
<path d="M14.5,0.7c7.6,0,13.8,6.2,13.8,13.8s-6.2,13.8-13.8,13.8S0.7,22.1,0.7,14.5S6.9,0.7,14.5,0.7 M14.5,0.1
	c-8,0-14.4,6.4-14.4,14.4s6.4,14.4,14.4,14.4s14.4-6.4,14.4-14.4S22.5,0.1,14.5,0.1L14.5,0.1z"/>
</svg>
