<?xml version="1.0" encoding="utf-8"?>
<!-- Generator: Adobe Illustrator 25.0.1, SVG Export Plug-In . SVG Version: 6.00 Build 0)  -->
<svg version="1.1" id="Capa_1" xmlns="http://www.w3.org/2000/svg" xmlns:xlink="http://www.w3.org/1999/xlink" x="0px" y="0px"
	 viewBox="0 0 29 29" style="enable-background:new 0 0 29 29;" xml:space="preserve">
<g>
	<path d="M22.9,11.4c-0.2-2.7-2.2-4.6-4.5-4.6c-1.6,0-3.1,0.8-3.8,2.2c-0.8-1.4-2.2-2.2-3.8-2.2c-2.4,0-4.3,2-4.5,4.6
		c0,0.1-0.1,0.7,0.2,1.8c0.3,1.5,1.2,2.8,2.3,3.8l5.7,5.3l5.9-5.3c1.2-1.1,2-2.4,2.3-3.8C22.9,12.1,22.9,11.5,22.9,11.4z M22.1,13
		c-0.3,1.3-1.1,2.6-2.1,3.5l-5.5,4.9L9,16.5c-1.1-0.9-1.8-2.2-2.1-3.6c-0.2-0.9-0.1-1.5-0.1-1.5v-0.1C7,9,8.6,7.3,10.7,7.3
		c1.5,0,2.8,0.9,3.5,2.4l0.3,0.7l0.3-0.7c0.6-1.5,2-2.4,3.6-2.4c2.1,0,3.7,1.7,3.9,4.1C22.2,11.5,22.3,12,22.1,13z"/>
</g>
<path d="M14.5,0.6c7.7,0,13.9,6.2,13.9,13.9s-6.2,13.9-13.9,13.9S0.6,22.2,0.6,14.5S6.8,0.6,14.5,0.6 M14.5,0C6.5,0,0,6.5,0,14.5
	S6.5,29,14.5,29S29,22.5,29,14.5S22.5,0,14.5,0L14.5,0z"/>
</svg>
