<?xml version="1.0" encoding="utf-8"?>
<!-- Generator: Adobe Illustrator 25.0.1, SVG Export Plug-In . SVG Version: 6.00 Build 0)  -->
<svg version="1.1" id="Слой_1" xmlns="http://www.w3.org/2000/svg" xmlns:xlink="http://www.w3.org/1999/xlink" x="0px" y="0px"
	 viewBox="0 0 24 22" style="enable-background:new 0 0 24 22;" xml:space="preserve">
<style type="text/css">
	.st0{fill:none;stroke:#E87C7C;stroke-width:2;stroke-linecap:round;stroke-linejoin:round;}
</style>
<path class="st0" d="M20.8,3.6c-0.5-0.5-1.1-0.9-1.8-1.2C18.4,2.1,17.7,2,17,2s-1.4,0.1-2.1,0.4c-0.7,0.3-1.3,0.7-1.8,1.2L12,4.7
	l-1.1-1.1C9.9,2.6,8.5,2,7.1,2S4.2,2.6,3.2,3.6c-1,1-1.6,2.4-1.6,3.9c0,1.5,0.6,2.9,1.6,3.9l1.1,1.1l7.8,7.8l7.8-7.8l1.1-1.1
	c0.5-0.5,0.9-1.1,1.2-1.8c0.3-0.7,0.4-1.4,0.4-2.1c0-0.7-0.1-1.4-0.4-2.1C21.8,4.7,21.4,4.1,20.8,3.6L20.8,3.6z"/>
</svg>
