<?xml version="1.0" encoding="utf-8"?>
<!-- Generator: Adobe Illustrator 25.0.1, SVG Export Plug-In . SVG Version: 6.00 Build 0)  -->
<svg version="1.1" id="Capa_1" xmlns="http://www.w3.org/2000/svg" xmlns:xlink="http://www.w3.org/1999/xlink" x="0px" y="0px"
	 viewBox="0 0 29 29" style="enable-background:new 0 0 29 29;" xml:space="preserve">
<g>
	<path d="M19.2,8.1c-0.6-0.1-1-0.1-1.5,0.1c-0.7-1-1.9-1.5-3.1-1.5s-2.4,0.5-3.1,1.5c-0.5-0.2-1-0.2-1.5-0.1C7.9,8.4,6.4,10,6.4,12
		c0,1.8,1.2,3.4,3,3.8c0.4,0.1,0.7,0.4,0.8,0.9l0.2,2.5l0,0l0.1,1.4c0.1,0.6,0.8,1,1.2,1.2c0.1,0,0.1,0.1,0.1,0.1
		c0.9,0.4,1.8,0.5,2.7,0.5s1.9-0.2,2.7-0.5c0.2-0.1,1.2-0.5,1.3-1.2l0.1-1.4l0,0l0.2-2.5c0.1-0.4,0.3-0.8,0.8-0.9c1.8-0.4,3-2,3-3.8
		C22.6,10,21.1,8.4,19.2,8.1z M17,21.2c-1.6,0.7-3.5,0.7-5.1,0c-0.3-0.2-0.9-0.5-0.9-0.7L11,20.1c1.1,0.5,2.3,0.8,3.5,0.8
		s2.4-0.3,3.5-0.8l-0.1,0.4C17.9,20.8,17.4,21.1,17,21.2z M19.5,15.3c-0.7,0.2-1.1,0.7-1.2,1.4L18,19.4c-1.1,0.6-2.3,0.9-3.5,0.9
		s-2.4-0.3-3.5-0.9l-0.3-2.9c-0.1-0.7-0.6-1.2-1.2-1.4C8,14.8,7,13.5,7,11.9c0-1.6,1.3-3.1,2.9-3.3c0.2,0,0.3-0.1,0.4-0.1
		c0.4,0,0.7,0.1,1.1,0.2l0.2,0.1l0.1-0.2c0.6-0.9,1.6-1.5,2.7-1.5s2.1,0.5,2.7,1.5l0.1,0.2l0.2-0.1c0.5-0.2,1-0.2,1.5-0.2
		c1.6,0.2,2.9,1.6,2.9,3.3C22,13.5,21,14.9,19.5,15.3z"/>
	<path d="M11.7,16.2c-0.2,0-0.3,0.2-0.2,0.3l0.3,2.3c0,0.2,0.2,0.2,0.3,0.2c0,0,0,0,0.1,0c0.2,0,0.3-0.2,0.2-0.3L12,16.4
		C12,16.3,11.8,16.1,11.7,16.2z"/>
	<path d="M13.7,16.8c-0.2,0-0.3,0.1-0.3,0.3v2.3c0,0.2,0.1,0.3,0.3,0.3c0.2,0,0.3-0.1,0.3-0.3V17C13.9,16.9,13.8,16.8,13.7,16.8z"/>
	<path d="M17.3,16.2c-0.2,0-0.3,0.1-0.3,0.2l-0.3,2.3c0,0.2,0.1,0.3,0.2,0.3c0,0,0,0,0.1,0c0.2,0,0.3-0.1,0.3-0.2l0.3-2.3
		C17.6,16.4,17.5,16.2,17.3,16.2z"/>
	<path d="M15.3,16.8c-0.2,0-0.3,0.1-0.3,0.3v2.3c0,0.2,0.1,0.3,0.3,0.3c0.2,0,0.3-0.1,0.3-0.3V17C15.6,16.9,15.5,16.8,15.3,16.8z"/>
	<path d="M10.9,9.5c-2.3,0-2.8,1.9-2.8,1.9c-0.1,0.2,0.1,0.3,0.2,0.3h0.1c0.1,0,0.2-0.1,0.3-0.2c0,0,0.3-1.5,2.3-1.4
		c0.2,0,0.3-0.1,0.3-0.3C11.1,9.6,11,9.5,10.9,9.5z"/>
	<path d="M13,8.5c-0.1,0.1-0.2,0.3-0.1,0.4C13,8.9,13.2,9,13.3,8.9c0,0,1.2-0.9,2.5,0c0.1,0.1,0.1,0.1,0.2,0.1
		c0.1,0,0.2-0.1,0.2-0.1c0.1-0.1,0.1-0.3-0.1-0.4C14.8,7.5,13.5,8,13,8.5z"/>
</g>
<path d="M14.5,0.8c7.6,0,13.7,6.2,13.7,13.7s-6.2,13.7-13.7,13.7S0.8,22.1,0.8,14.5S6.9,0.8,14.5,0.8 M14.5,0.2
	C6.6,0.2,0.2,6.6,0.2,14.5s6.4,14.3,14.3,14.3s14.3-6.4,14.3-14.3S22.4,0.2,14.5,0.2L14.5,0.2z"/>
</svg>
