<svg width="22" height="20" viewBox="0 0 22 20" fill="none" xmlns="http://www.w3.org/2000/svg">
<path d="M20.9754 1.82921H7.96995C7.6124 0.767251 6.60794 0 5.42695 0C4.24595 0 3.24149 0.767251 2.88394 1.82921H0.853893C0.382316 1.82921 0 2.21153 0 2.6831C0 3.15468 0.382316 3.53699 0.853893 3.53699H2.884C3.24155 4.59895 4.24601 5.3662 5.427 5.3662C6.60799 5.3662 7.61246 4.59895 7.97001 3.53699H20.9754C21.447 3.53699 21.8293 3.15468 21.8293 2.6831C21.8293 2.21153 21.447 1.82921 20.9754 1.82921ZM5.42695 3.65842C4.88916 3.65842 4.45163 3.22088 4.45163 2.6831C4.45163 2.14532 4.88916 1.70779 5.42695 1.70779C5.96473 1.70779 6.40226 2.14532 6.40226 2.6831C6.40226 3.22088 5.96473 3.65842 5.42695 3.65842Z" fill="#E87C7C"/>
<path d="M20.9754 9.14612H18.9453C18.5877 8.08416 17.5832 7.31691 16.4023 7.31691C15.2213 7.31691 14.2169 8.08416 13.8593 9.14612H0.853893C0.382316 9.14612 0 9.52844 0 10C0 10.4716 0.382316 10.8539 0.853893 10.8539H13.8593C14.2169 11.9159 15.2214 12.6831 16.4023 12.6831C17.5832 12.6831 18.5878 11.9159 18.9453 10.8539H20.9754C21.447 10.8539 21.8293 10.4716 21.8293 10C21.8293 9.52844 21.447 9.14612 20.9754 9.14612ZM16.4023 10.9753C15.8645 10.9753 15.427 10.5378 15.427 10C15.427 9.46223 15.8645 9.0247 16.4023 9.0247C16.9401 9.0247 17.3776 9.46223 17.3776 10C17.3776 10.5378 16.9401 10.9753 16.4023 10.9753Z" fill="#E87C7C"/>
<path d="M20.9754 16.463H11.6284C11.2709 15.401 10.2664 14.6338 9.08542 14.6338C7.90443 14.6338 6.89997 15.401 6.54241 16.463H0.853893C0.382316 16.463 0 16.8453 0 17.3169C0 17.7885 0.382316 18.1708 0.853893 18.1708H6.54241C6.89997 19.2327 7.90443 20 9.08542 20C10.2664 20 11.2709 19.2327 11.6284 18.1708H20.9754C21.447 18.1708 21.8293 17.7885 21.8293 17.3169C21.8293 16.8453 21.447 16.463 20.9754 16.463ZM9.08542 18.2923C8.54764 18.2923 8.1101 17.8547 8.1101 17.3169C8.1101 16.7792 8.54764 16.3416 9.08542 16.3416C9.6232 16.3416 10.0607 16.7791 10.0607 17.3169C10.0607 17.8547 9.6232 18.2923 9.08542 18.2923Z" fill="#E87C7C"/>
</svg>
