<?xml version="1.0" encoding="utf-8"?>
<!-- Generator: Adobe Illustrator 25.0.1, SVG Export Plug-In . SVG Version: 6.00 Build 0)  -->
<svg version="1.1" id="Capa_1" xmlns="http://www.w3.org/2000/svg" xmlns:xlink="http://www.w3.org/1999/xlink" x="0px" y="0px"
	 viewBox="0 0 29 29" style="enable-background:new 0 0 29 29;" xml:space="preserve">
<g>
	<path d="M28.3,28.1l-8.1-8.5c2.1-2.1,3.4-5,3.4-8.1C23.5,5.2,18.4,0,12,0S0.5,5.2,0.5,11.5S5.7,23,12,23c2.8,0,5.3-1,7.3-2.6
		l8.2,8.5c0.1,0.1,0.3,0.2,0.4,0.2c0.1,0,0.3-0.1,0.4-0.2C28.5,28.6,28.5,28.3,28.3,28.1z M12,21.9c-5.7,0-10.4-4.7-10.4-10.4
		S6.3,1.1,12,1.1s10.4,4.7,10.4,10.4S17.8,21.9,12,21.9z"/>
</g>
</svg>
