<?xml version="1.0" encoding="utf-8"?>
<!-- Generator: Adobe Illustrator 25.0.1, SVG Export Plug-In . SVG Version: 6.00 Build 0)  -->
<svg version="1.1" id="Слой_1" xmlns="http://www.w3.org/2000/svg" xmlns:xlink="http://www.w3.org/1999/xlink" x="0px" y="0px"
	 viewBox="0 0 26 23" style="enable-background:new 0 0 26 23;" xml:space="preserve">
<style type="text/css">
	.st0{fill:#D9D9D9;}
</style>
<path class="st0" d="M14.7,0.6c-2.9,0-5.7,1.1-7.7,3.2c-2,2-3.2,4.8-3.2,7.7H0.2l4.7,4.7L5,16.4l4.9-4.9H6.3C6.3,6.8,10,3,14.7,3
	c4.7,0,8.5,3.8,8.5,8.5c0,4.7-3.8,8.5-8.5,8.5c-2.3,0-4.4-1-6-2.5L7,19.2c1,1,2.2,1.8,3.5,2.4c1.3,0.5,2.7,0.8,4.2,0.8
	c2.9,0,5.7-1.1,7.7-3.2c2-2,3.2-4.8,3.2-7.7c0-2.9-1.1-5.7-3.2-7.7C20.4,1.8,17.6,0.6,14.7,0.6z M13.5,6.7v6l5.1,3l0.9-1.6l-4.3-2.5
	v-5H13.5z"/>
</svg>
