<?xml version="1.0" encoding="utf-8"?>
<!-- Generator: Adobe Illustrator 25.0.1, SVG Export Plug-In . SVG Version: 6.00 Build 0)  -->
<svg version="1.1" id="Слой_1" xmlns="http://www.w3.org/2000/svg" xmlns:xlink="http://www.w3.org/1999/xlink" x="0px" y="0px"
	 viewBox="0 0 26 26" style="enable-background:new 0 0 26 26;" xml:space="preserve">
<style type="text/css">
	.st0{clip-path:url(#SVGID_2_);}
	.st1{fill:#D9D9D9;}
</style>
<g>
	<defs>
		<rect id="SVGID_1_" width="26" height="26"/>
	</defs>
	<clipPath id="SVGID_2_">
		<use xlink:href="#SVGID_1_"  style="overflow:visible;"/>
	</clipPath>
	<g class="st0">
		<path class="st1" d="M25,12H7.3c-0.6,0-1,0.5-1,1s0.5,1,1,1H25c0.6,0,1-0.5,1-1S25.5,12,25,12z"/>
		<path class="st1" d="M25,4.4H7.3c-0.6,0-1,0.5-1,1s0.5,1,1,1H25c0.6,0,1-0.5,1-1S25.5,4.4,25,4.4z"/>
		<path class="st1" d="M25,19.6H7.3c-0.6,0-1,0.5-1,1c0,0.6,0.5,1,1,1H25c0.6,0,1-0.5,1-1C26,20.1,25.5,19.6,25,19.6z"/>
		<path class="st1" d="M1.4,6.8c0.8,0,1.4-0.6,1.4-1.4C2.7,4.6,2.1,4,1.4,4C0.6,4,0,4.6,0,5.4C0,6.1,0.6,6.8,1.4,6.8z"/>
		<path class="st1" d="M1.4,14.4c0.8,0,1.4-0.6,1.4-1.4s-0.6-1.4-1.4-1.4C0.6,11.6,0,12.2,0,13S0.6,14.4,1.4,14.4z"/>
		<path class="st1" d="M1.4,22c0.8,0,1.4-0.6,1.4-1.4c0-0.8-0.6-1.4-1.4-1.4c-0.8,0-1.4,0.6-1.4,1.4C0,21.4,0.6,22,1.4,22z"/>
	</g>
</g>
</svg>
